# AST/ASF file generated using VICON BodyLanguage
# -----------------------------------------------
:version 1.10
:name VICON
:units
  mass 1.0
  length 0.45
  angle deg
:documentation
   .ast/.asf automatically generated from VICON data using
   VICON BodyBuilder and BodyLanguage model FoxedUp or BRILLIANT.MOD
:root
   order TX TY TZ RX RY RZ
   axis XYZ
   position 0 0 0  
   orientation 0 0 0 
:bonedata
  begin
     id 1 
     name lhipjoint
     direction 0.567149 -0.783011 0.255413 
     length 2.28399 
     axis 0 0 0  XYZ
  end
  begin
     id 2 
     name lfemur
     direction 0.34202 -0.939693 0  
     length 7.34031  
     axis 0 0 20  XYZ
    dof rx ry rz
    limits (-160.0 20.0)
           (-70.0 70.0)
           (-60.0 70.0)
  end
  begin
     id 3 
     name ltibia
     direction 0.34202 -0.939693 0   
     length 6.9833   
     axis 0 0 20   XYZ
    dof rx
    limits (-10.0 170.0)
  end
  begin
     id 4 
     name lfoot
     direction 0.136498 -0.375025 0.91691   
     length 2.33665   
     axis -90 7.62852e-016 20   XYZ
    dof rx rz
    limits (-45.0 90.0)
           (-70.0 20.0)
  end
  begin
     id 5 
     name ltoes
     direction 1.5367e-011 -4.21617e-011 1   
     length 1.15039   
     axis -90 7.62852e-016 20   XYZ
    dof rx
    limits (-90.0 20.0)
  end
  begin
     id 6 
     name rhipjoint
     direction -0.602854 -0.758518 0.247423   
     length 2.35775  
     axis 0 0 0  XYZ 
  end
  begin
     id 7 
     name rfemur
     direction -0.34202 -0.939693 0   
     length 7.43932   
     axis 0 0 -20   XYZ
    dof rx ry rz
    limits (-160.0 20.0)
           (-70.0 70.0)
           (-70.0 60.0)
  end
  begin
     id 8 
     name rtibia
     direction -0.34202 -0.939693 0   
     length 7.11893   
     axis 0 0 -20   XYZ
    dof rx
    limits (-10.0 170.0)
 end
 begin
     id 9 
     name rfoot
     direction -0.131771 -0.362037 0.922803   
     length 2.53019  
     axis -90 -7.62852e-016 -20   XYZ
    dof rx rz
    limits (-45.0 90.0)
           (-20.0 70.0)
  end
  begin
     id 10 
     name rtoes
     direction -1.53733e-011 -4.21932e-011 1   
     length 1.24596   
     axis -90 -7.62852e-016 -20   XYZ
    dof rx
    limits (-90.0 20.0)
  end
  begin
     id 11 
     name lowerback
     direction 0.0235427 0.999023 -0.0374125   
     length 2.21768   
     axis 0 0 0   XYZ
    dof rx ry rz
    limits (-20.0 45.0)
           (-30.0 30.0)
           (-30.0 30.0)
  end
  begin
     id 12 
     name upperback
     direction 0.0302156 0.996818 -0.073759   
     length 2.20352   
     axis 0 0 0   XYZ
    dof rx ry rz
    limits (-20.0 45.0)
           (-30.0 30.0)
           (-30.0 30.0)
  end
  begin
     id 13 
     name thorax
     direction 0.0187169 0.998235 -0.0563532   
     length 2.22103   
     axis 0 0 0   XYZ
    dof rx ry rz
    limits (-20.0 45.0)
           (-30.0 30.0)
           (-30.0 30.0)
  end
  begin
     id 14 
     name lowerneck
     direction -0.119528 0.987423 0.103481   
     length 1.72948   
     axis 0 0 0   XYZ
    dof rx ry rz
    limits (-20.0 45.0)
           (-30.0 30.0)
           (-30.0 30.0)
  end
  begin
     id 15 
     name upperneck
     direction 0.248049 0.963095 -0.104496   
     length 1.74979   
     axis 0 0 0   XYZ
    dof rx ry rz
    limits (-20.0 45.0)
           (-30.0 30.0)
           (-30.0 30.0)
  end
  begin
     id 16
     name head
     direction 0.0903589 0.994284 -0.056876  
     length 1.78268  
     axis 0 0 0   XYZ
    dof rx ry rz
    limits (-20.0 45.0)
           (-30.0 30.0)
           (-30.0 30.0)
  end
  begin
     id 17 
     name lclavicle
     direction 0.946008 0.242039 -0.215608  
     length 3.80783  
     axis 0 0 0   XYZ
    dof ry rz
    limits (-20.0 10.0)
           (0.0 20.0)
  end
  begin
     id 18 
     name lhumerus
     direction 1 -4.48991e-011 -2.25695e-027   
     length 4.83125   
     axis 180 -30 -90   XYZ
    dof rx ry rz
    limits (-60.0 90.0)
           (-90.0 90.0)
           (-90.0 90.0)
  end
  begin
     id 19
     name lradius
     direction 0.999991 0.00366712 -0.00211721   
     length 3.00391   
     axis 180 -30 -90   XYZ
    dof rx
    limits (-10.0 170.0)
  end
  begin
     id 20
     name lwrist
     direction 0.999991 0.00393016 -0.00141978   
     length 1.50195   
     axis -1.00488e-014 90 90   XYZ
    dof ry
    limits (-180.0 0.0)
 end
  begin
     id 21 
     name lhand
     direction 1 -4.49123e-011 2.72098e-026   
     length 1.2717   
     axis -1.73687e-014 90 90   XYZ
    dof rx rz
    limits (-90.0 90.0)
           (-45.0 45.0)
  end
  begin
     id 22 
     name lfingers
     direction 1 -4.48678e-011 5.4479e-026   
     length 1.02528   
     axis -3.47372e-014 90 90   XYZ
    dof rx
    limits (0.0 90.0)
  end
  begin
     id 23
     name lthumb
     direction 0.707107 -6.34851e-011 0.707107   
     length 1.4721   
     axis -90 45 -1.62303e-014   XYZ
    dof rx rz
    limits (-45.0 45.0)
           (-45.0 45.0)
  end
  begin
     id 24 
     name rclavicle
     direction -0.981723 0.189447 -0.0181673   
     length 3.74989  
     axis 0 0 0   XYZ 
    dof ry rz
    limits (-10.0 20.0)
           (-20.0 0.0)
  end
  begin
     id 25 
     name rhumerus
     direction -1 -4.48985e-011 2.38206e-027  
     length 4.61118   
     axis 180 30 90   XYZ
    dof rx ry rz
    limits (-90.0 60.0)
           (-90.0 90.0)
           (-90.0 90.0)
  end
  begin
     id 26 
     name rradius
     direction -1 -4.48977e-011 7.41019e-027   
     length 2.91491   
     axis 180 30 90   XYZ
    dof rx
    limits (-10.0 170.0)
  end
  begin
     id 27 
     name rwrist
     direction -1 -4.48549e-011 1.3624e-026   
     length 1.45745   
     axis -1.00488e-014 -90 -90   XYZ
    dof ry
    limits (-180.0 0.0)
  end
  begin
     id 28
     name rhand
     direction -1 -4.49107e-011 2.72109e-026   
     length 1.30769   
     axis -1.73687e-014 -90 -90   XYZ
    dof rx rz
    limits (-90.0 90.0)
           (-45.0 45.0)
  end
  begin
     id 29
     name rfingers
     direction -1 -4.48919e-011 5.44468e-026   
     length 1.05429   
     axis -3.47372e-014 -90 -90   XYZ
    dof rx
    limits (0.0 90.0)
  end
  begin
     id 30
     name rthumb
     direction -0.707107 -6.35315e-011 0.707107   
     length 1.51376   
     axis -90 -45 1.62303e-014   XYZ
    dof rx rz
    limits (-45.0 45.0)
           (-45.0 45.0)
  end
:hierarchy
  begin
    root lhipjoint rhipjoint lowerback
    lhipjoint lfemur
    lfemur ltibia
    ltibia lfoot
    lfoot ltoes
    rhipjoint rfemur
    rfemur rtibia
    rtibia rfoot
    rfoot rtoes
    lowerback upperback
    upperback thorax
    thorax lowerneck lclavicle rclavicle
    lowerneck upperneck
    upperneck head
    lclavicle lhumerus
    lhumerus lradius
    lradius lwrist
    lwrist lhand lthumb
    lhand lfingers
    rclavicle rhumerus
    rhumerus rradius
    rradius rwrist
    rwrist rhand rthumb
    rhand rfingers
  end

#!OML:ASF X:\für Bonn\!DataBase\2005_08_11_Bastian_Final\c3d\Bastian.ASF
:FULLY-SPECIFIED
:DEGREES
1
root 3.27546 16.4462 -23.4983 1080.81 -1.01401 -7.4391
lowerback 14.5875 0.238789 0.819636
upperback 5.6261 0.480074 1.75086
thorax -2.2463 0.227269 1.289
lowerneck -13.8293 -5.31099 -5.54583
upperneck -10.4638 -5.85947 12.1352
head -0.318439 -2.74912 4.36125
rclavicle 2.5842e-015 -1.27222e-014
rhumerus -49.8324 -9.84732 -80.1696
rradius 21.3432
rwrist 3.23989
rhand -18.426 15.1811
rfingers 7.12502
rthumb 7.85917 -14.6528
lclavicle 2.5842e-015 -1.27222e-014
lhumerus -38.7492 26.5561 66.9201
lradius 27.6249
lwrist -176.057
lhand -15.97 -2.06851
lfingers 7.12502
lthumb 10.2291 27.6628
rfemur -31.936 -0.839084 30.8946
rtibia 59.9173
rfoot -25.5891 1.23111
rtoes -18.6992
lfemur -21.6834 4.51793 -14.6171
ltibia 61.1139
lfoot -27.1181 -4.79846
ltoes -10.5011
2
root 3.27918 16.2178 -23.2939 1080.75 -0.733426 -7.01738
lowerback 15.1132 0.123115 0.495547
upperback 5.53183 0.290212 1.64041
thorax -2.62385 0.131677 1.3881
lowerneck -14.5154 -5.1869 -5.05651
upperneck -10.8712 -5.7142 11.8079
head -0.380324 -2.68234 4.18536
rclavicle 1.27222e-014 1.19271e-015
rhumerus -49.8683 -10.1944 -80.162
rradius 22.1577
rwrist 2.21943
rhand -18.5799 14.6485
rfingers 7.12502
rthumb 7.71065 -15.1909
lclavicle 1.27222e-014 1.19271e-015
lhumerus -37.69 25.4864 68.1275
lradius 28.11
lwrist -175.382
lhand -15.4182 -2.0017
lfingers 7.12502
lthumb 10.7614 27.7026
rfemur -32.8354 -0.914309 30.58
rtibia 62.1125
rfoot -25.3476 0.670803
rtoes -15.0804
lfemur -21.6725 4.80169 -15.0575
ltibia 63.2446
lfoot -30.3861 -5.88372
ltoes -9.84468
3
root 3.28563 16.0125 -23.0859 1080.78 -0.45314 -6.65465
lowerback 15.5613 -0.0146099 0.251497
upperback 5.42559 0.0789509 1.55867
thorax -2.97027 0.0271873 1.4788
lowerneck -15.1505 -5.05862 -4.6477
upperneck -11.2919 -5.59202 11.2317
head -0.55565 -2.61937 4.32269
rclavicle 2.38542e-015 -1.59028e-015
rhumerus -49.661 -10.5522 -80.0929
rradius 22.6908
rwrist 1.42428
rhand -18.8895 14.2986
rfingers 7.12502
rthumb 7.41179 -15.5516
lclavicle 2.38542e-015 -1.59028e-015
lhumerus -36.5405 23.925 69.6625
lradius 28.9217
lwrist -174.455
lhand -14.9616 -1.74052
lfingers 7.12502
lthumb 11.2018 27.9404
rfemur -33.5416 -0.989823 30.3266
rtibia 64.2359
rfoot -25.4673 -0.0471391
rtoes -11.1703
lfemur -21.677 5.11333 -15.4209
ltibia 65.2097
lfoot -33.028 -6.80309
ltoes -8.95171
4
root 3.29437 15.8258 -22.8748 1080.94 -0.204561 -6.38021
lowerback 15.933 -0.156369 0.108351
upperback 5.20836 -0.123925 1.48968
thorax -3.39227 -0.0709941 1.52732
lowerneck -15.6058 -4.91486 -4.26214
upperneck -11.8725 -5.40716 11.0254
head -0.713666 -2.54198 4.18851
rclavicle -3.97569e-016 -3.57812e-015
rhumerus -49.5255 -10.6789 -80.1915
rradius 23.4119
rwrist 0.582286
rhand -19.3267 14.0918
rfingers 7.12502
rthumb 6.98977 -15.7728
lclavicle -3.97569e-016 -3.57812e-015
lhumerus -35.4761 22.058 71.2276
lradius 29.8905
lwrist -173.542
lhand -14.6256 -1.08885
lfingers 7.12502
lthumb 11.5258 28.5743
rfemur -34.1188 -0.940867 30.1578
rtibia 66.2662
rfoot -26.0557 -0.937297
rtoes -7.34562
lfemur -21.7324 5.47803 -15.6683
ltibia 66.989
lfoot -34.999 -7.78627
ltoes -7.31981
5
root 3.30667 15.6649 -22.6583 1081.21 -0.0764835 -6.22301
lowerback 16.0307 -0.280648 0.169425
upperback 5.0087 -0.276959 1.41638
thorax -3.65196 -0.144303 1.44608
lowerneck -16.0458 -4.78679 -3.91736
upperneck -12.4668 -5.24084 10.8286
head -0.875505 -2.47409 4.06654
rclavicle 7.95139e-016 -1.15295e-014
rhumerus -49.4419 -10.3166 -80.7283
rradius 24.6925
rwrist -0.675404
rhand -19.8324 13.7676
rfingers 7.12502
rthumb 6.50157 -16.1126
lclavicle 7.95139e-016 -1.15295e-014
lhumerus -34.3039 19.9222 72.8452
lradius 30.9251
lwrist -172.478
lhand -14.4734 -0.216355
lfingers 7.12502
lthumb 11.6726 29.4385
rfemur -34.551 -0.797661 30.103
rtibia 68.124
rfoot -27.3436 -1.90693
rtoes -6.5921
lfemur -21.723 5.98232 -15.7718
ltibia 68.5244
lfoot -36.5156 -8.74515
ltoes -5.95252
6
root 3.3206 15.5342 -22.4364 1081.57 0.0122916 -6.18447
lowerback 15.7859 -0.428502 0.413335
upperback 4.78755 -0.434823 1.37487
thorax -3.75322 -0.220941 1.29269
lowerneck -16.3346 -4.68293 -3.84267
upperneck -13.0265 -5.0658 10.8313
head -1.0358 -2.3942 4.07214
rclavicle -1.31198e-014 9.54166e-015
rhumerus -49.2468 -9.69737 -81.4249
rradius 26.1714
rwrist -1.79975
rhand -20.4405 13.5843
rfingers 7.12502
rthumb 5.91458 -16.3132
lclavicle -1.31198e-014 9.54166e-015
lhumerus -33.2388 17.7383 74.3851
lradius 32.1591
lwrist -171.555
lhand -14.5278 0.66482
lfingers 7.12502
lthumb 11.6201 30.3226
rfemur -34.8071 -0.646487 30.1666
rtibia 69.7438
rfoot -28.8964 -2.86987
rtoes -7.50653
lfemur -21.6526 6.56263 -15.7023
ltibia 69.731
lfoot -37.6115 -9.76183
ltoes -4.31334
7
root 3.336 15.4385 -22.2081 1081.99 0.0684267 -6.14631
lowerback 15.4659 -0.569754 0.656851
upperback 4.52529 -0.586562 1.31579
thorax -3.85872 -0.295154 1.119
lowerneck -16.5083 -4.57584 -3.74518
upperneck -13.5751 -4.89386 10.8281
head -1.21238 -2.32004 4.0734
rclavicle 6.55989e-015 -2.70347e-014
rhumerus -48.8515 -8.72552 -82.4029
rradius 27.8121
rwrist -3.07809
rhand -21.0934 13.5095
rfingers 7.12502
rthumb 5.28415 -16.4046
lclavicle 6.55989e-015 -2.70347e-014
lhumerus -32.1647 15.4449 75.8066
lradius 33.5242
lwrist -170.55
lhand -14.7746 1.43819
lfingers 7.12502
lthumb 11.3822 31.1093
rfemur -34.8173 -0.533635 30.189
rtibia 71.0278
rfoot -30.4744 -3.60558
rtoes -8.88958
lfemur -21.4478 7.24754 -15.5992
ltibia 70.526
lfoot -38.3849 -10.6538
ltoes -3.34411
8
root 3.35195 15.386 -21.9703 1082.46 0.066908 -6.13555
lowerback 15.0782 -0.690975 0.902482
upperback 4.22162 -0.713535 1.26023
thorax -3.97233 -0.358028 0.942331
lowerneck -16.5911 -4.48389 -3.73195
upperneck -14.0221 -4.73539 10.8869
head -1.36414 -2.24917 4.11204
rclavicle 1.05356e-014 3.97569e-015
rhumerus -48.6431 -7.46138 -83.455
rradius 29.8839
rwrist -4.23404
rhand -21.707 13.5298
rfingers 7.12502
rthumb 4.69167 -16.3983
lclavicle 1.05356e-014 3.97569e-015
lhumerus -31.1579 12.9924 77.1107
lradius 35.0969
lwrist -169.399
lhand -15.177 1.99409
lfingers 7.12502
lthumb 10.994 31.6862
rfemur -34.594 -0.399804 30.1997
rtibia 71.8232
rfoot -31.8848 -4.08458
rtoes -10.028
lfemur -21.0302 7.96881 -15.4542
ltibia 70.7995
lfoot -38.747 -11.3487
ltoes -2.93163
9
root 3.36761 15.3782 -21.709 1082.95 0.00209341 -6.15316
lowerback 14.5476 -0.783826 1.11824
upperback 3.86682 -0.80962 1.24135
thorax -4.06184 -0.406555 0.81337
lowerneck -16.4697 -4.39444 -3.82812
upperneck -14.5699 -4.52039 11.2481
head -1.35342 -2.16944 3.91975
rclavicle -7.95139e-016 -1.47101e-014
rhumerus -48.6235 -5.98357 -84.4276
rradius 32.1879
rwrist -5.20261
rhand -22.2322 13.7815
rfingers 7.12502
rthumb 4.18458 -16.1571
lclavicle -7.95139e-016 -1.47101e-014
lhumerus -30.3661 10.5482 78.2816
lradius 36.8135
lwrist -168.403
lhand -15.7141 2.42604
lfingers 7.12502
lthumb 10.4759 32.145
rfemur -33.9959 -0.297996 30.1798
rtibia 72.0214
rfoot -33.0101 -4.17484
rtoes -10.1825
lfemur -20.2679 8.61758 -15.2689
ltibia 70.4763
lfoot -38.669 -11.8304
ltoes -2.99779
10
root 3.38432 15.4104 -21.4039 1083.43 -0.109794 -6.14161
lowerback 13.6217 -0.871808 1.31485
upperback 3.56507 -0.915653 1.1898
thorax -3.87997 -0.460299 0.654707
lowerneck -16.3732 -4.28597 -3.83099
upperneck -14.7776 -4.35871 11.2814
head -1.43974 -2.09687 3.94371
rclavicle 1.88845e-014 -3.02153e-014
rhumerus -48.7321 -4.38908 -85.3699
rradius 34.6571
rwrist -5.76058
rhand -22.6219 14.1925
rfingers 7.12502
rthumb 3.8082 -15.7532
lclavicle 1.88845e-014 -3.02153e-014
lhumerus -29.7089 8.12185 79.2541
lradius 38.6375
lwrist -167.382
lhand -16.3336 2.72728
lfingers 7.12502
lthumb 9.87835 32.4755
rfemur -32.8531 -0.274682 30.0562
rtibia 71.5868
rfoot -33.9864 -3.89689
rtoes -9.95986
lfemur -19.022 9.12272 -15.1106
ltibia 69.5124
lfoot -38.2237 -12.1869
ltoes -2.98295
11
root 3.40056 15.4742 -21.0652 1083.86 -0.285416 -6.13271
lowerback 12.4344 -0.928169 1.5086
upperback 3.26077 -0.990638 1.13095
thorax -3.55553 -0.49862 0.479018
lowerneck -16.2385 -4.18364 -3.78734
upperneck -14.7589 -4.23424 11.2459
head -1.4648 -2.0398 3.93247
rclavicle -6.95746e-015 -5.56597e-015
rhumerus -49.1277 -2.74528 -86.217
rradius 37.2661
rwrist -5.99548
rhand -22.8322 14.7318
rfingers 7.12502
rthumb 3.60512 -15.2175
lclavicle -6.95746e-015 -5.56597e-015
lhumerus -29.3076 5.53085 80.0979
lradius 40.5988
lwrist -166.394
lhand -16.9211 2.97124
lfingers 7.12502
lthumb 9.31152 32.7456
rfemur -31.2677 -0.576435 29.8655
rtibia 70.5661
rfoot -34.6469 -3.10104
rtoes -9.3455
lfemur -17.3131 9.61935 -14.8975
ltibia 67.9272
lfoot -37.4782 -12.4883
ltoes -3.56134
12
root 3.41705 15.5658 -20.7145 1084.23 -0.550724 -6.1523
lowerback 10.9647 -0.987256 1.75636
upperback 2.93801 -1.07511 1.06506
thorax -3.09259 -0.541344 0.260833
lowerneck -16.0451 -4.03904 -3.73083
upperneck -14.4739 -4.07903 11.169
head -1.4223 -1.9626 3.90288
rclavicle -3.37934e-015 -7.55382e-015
rhumerus -49.5403 -1.07925 -86.9778
rradius 39.65
rwrist -5.68342
rhand -22.8846 15.4203
rfingers 7.12502
rthumb 3.55454 -14.5298
lclavicle -3.37934e-015 -7.55382e-015
lhumerus -29.1885 2.92148 80.7546
lradius 42.6025
lwrist -165.452
lhand -17.4818 3.24381
lfingers 7.12502
lthumb 8.77045 33.0416
rfemur -29.358 -1.15211 29.6264
rtibia 68.9986
rfoot -34.8911 -1.90883
rtoes -9.08899
lfemur -15.293 10.0864 -14.6418
ltibia 65.811
lfoot -36.4364 -12.6357
ltoes -4.84091
